{"title":"Masters.Of.Sex.S01E04.1080p.WEB-DL.iTA.ENG.6CH.SUBS.H264-SMiL3","uid":10446414,"size":2329015787,"categoryP":"video","categoryS":"hd___tv_shows","magnet":"?xt=urn:btih:afef429a5de284bcd29b8e4892e4b284ff8b0fb0&amp;dn=Masters.Of.Sex.S01E04.1080p.WEB-DL.iTA.ENG.6CH.SUBS.H264-SMiL3&amp;tr=udp%3A%2F%2Ftracker.openbittorrent.com%3A80&amp;tr=udp%3A%2F%2Fopen.demonii.com%3A1337&amp;tr=udp%3A%2F%2Ftracker.coppersurfer.tk%3A6969&amp;tr=udp%3A%2F%2Fexodus.desync.com%3A6969","seeders":3,"leechers":2,"uploader":"SMiL3MAN","files":1,"time":1403968983,"description":"SMiL3 iS PROUD TO PRESENT:\n\nMasters.Of.Sex.S01E04.1080p.WEB-DL.iTA.ENG.6CH.SUBS.H264-SMiL3\n\n\n        SHOW: Masters Of Sex (2013)\n        EPiSODE: Season 01 Episode 04/12\n        TiTLE: Thank You For Coming\n        AiR DATE: 2014/06/23 (iTA) / 2013/10/20 (USA)\n        iMDB: http://www.imdb.com/title/tt2137109/\n\n\nGENERAL FiLE iNFO:\n\n        SiZE: 2.16 GB\n        LENGTH: 52min\n        ViDEO: 1916x1076 - 5000 Kbps\n        AUDiO #1: iTALiAN AC3 5.1 384 Kbps\n        AUDiO #2: ENGLiSH AC3 5.1 384 Kbps\n        SUBTiTLES: iTALiAN, ENGLiSH\n        RELEASE DATE: 2014/06/27\n        MD5 CHECKSUM: c24b24e0d25e071fef6609566c99d556\n\n\nSOURCES:\n\n        ViDEO AND ENGLISH AUDiO: WEB-DL by BS\n        iTALiAN AUDIO: HDTV by NovaRip\n        iTALiAN SUBTiTLES: ITALIANSUBS CREW\n\n        EVERYTHiNG MUXED BY ME! THANKS TO THE ORiGiNAL SOURCES!\n        (SUMMARY WAS CROPPED DUE TO UNAVAiLABLE iTALiAN AUDiO FOR SUMMARY!)\n\n\nNOTES:\n\n        I'M SORRY BUT NAMING FOR THE FIRST TWO EPISODES IS WRONG:\n        &quot;Master.Of.Sex&quot; INSTEAD OF &quot;Masters.Of.Sex&quot;\n        SO IF YOU CAN'T FIND THE FIRST TWO EPISODES, TRY TO SEARCH &quot;master&quot;!\n\n        MI DISPIACE MA I PRIMI DUE EPISODI HANNO UN NOME FILE ERRATO:\n        &quot;Master.Of.Sex&quot; INVECE DI &quot;Masters.Of.Sex&quot;\n        SE NON RIUSCITE A TROVARE I PRIMI DUE EPISODI QUINDI, PROVATE A CERCARE\n        &quot;master&quot;!\n\n\nMEDiAiNFO:\n\n  Format                                   : Matroska\n  Format version                           : Version 4 / Version 2\n  File size                                : 2.16 GiB\n  Duration                                 : 51mn 43s\n  Overall bit rate                         : 5 957 Kbps\n  Encoded date                             : UTC 2014-06-27 14:21:56\n  Writing application                      : mkvmerge v7.0.0 ('Where We Going')\n                                            64bit built on Jun  9 2014 15:16:27\n  Writing library                          :libebml v1.3.0 + libmatroska v1.4.1\n  DURATION                                 : 00:52:07.680000000\n  NUMBER_OF_FRAMES                         : 97740\n  NUMBER_OF_BYTES                          : 150128640\n\n  Video\n  ID                                       : 1\n  Format                                   : AVC\n  Format/Info                              : Advanced Video Codec\n  Format profile                           : &lt;a class=&quot;__cf_email__&quot; href=&quot;/cdn-cgi/l/email-protection&quot; data-cfemail=&quot;7e361719163e324a504e&quot;&gt;[email&amp;#160;protected]&lt;/a&gt;&lt;script cf-hash='f9e31' type=&quot;text/javascript&quot;&gt;\n/* &lt;![CDATA[ */!function(){try{var t=&quot;currentScript&quot;in document?document.currentScript:function(){for(var t=document.getElementsByTagName(&quot;script&quot;),e=t.length;e--;)if(t[e].getAttribute(&quot;cf-hash&quot;))return t[e]}();if(t&amp;&amp;t.previousSibling){var e,r,n,i,c=t.previousSibling,a=c.getAttribute(&quot;data-cfemail&quot;);if(a){for(e=&quot;&quot;,r=parseInt(a.substr(0,2),16),n=2;a.length-n;n+=2)i=parseInt(a.substr(n,2),16)^r,e+=String.fromCharCode(i);e=document.createTextNode(e),c.parentNode.replaceChild(e,c)}}}catch(u){}}();/* ]]&gt; */&lt;/script&gt;\n  Format settings, CABAC                   : Yes\n  Format settings, ReFrames                : 4 frames\n  Codec ID                                 : V_MPEG4/ISO/AVC\n  Duration                                 : 52mn 7s\n  Bit rate                                 : 5 071 Kbps\n  Width                                    : 1 916 pixels\n  Height                                   : 1 076 pixels\n  Display aspect ratio                     : 16:9\n  Frame rate mode                          : Constant\n  Frame rate                               : 23.976 fps\n  Color space                              : YUV\n  Chroma subsampling                       : 4:2:0\n  Bit depth                                : 8 bits\n  Scan type                                : Progressive\n  Bits/(Pixel*Frame)                       : 0.103\n  Stream size                              : 1.85 GiB (85%)\n  Title                                    : WEB-DL by BS\n  Language                                 : English\n  Default                                  : Yes\n  Forced                                   : No\n  Color primaries                          : BT.709\n  Transfer characteristics                 : BT.709\n  Matrix coefficients                      : BT.709\n\n  Audio #1\n  ID                                       : 2\n  Format                                   : AC-3\n  Format/Info                              : Audio Coding 3\n  Mode extension                           : CM (complete main)\n  Format settings, Endianness              : Big\n  Codec ID                                 : A_AC3\n  Duration                                 : 52mn 7s\n  Bit rate mode                            : Constant\n  Bit rate                                 : 384 Kbps\n  Channel(s)                               : 6 channels\n  Channel positions                        : Front: L C R, Side: L R, LFE\n  Sampling rate                            : 48.0 KHz\n  Bit depth                                : 16 bits\n  Compression mode                         : Lossy\n  Stream size                              : 143 MiB (6%)\n  Title                                    : by NovaRip\n  Language                                 : Italian\n  Default                                  : Yes\n  Forced                                   : No\n\n  Audio #2\n  ID                                       : 3\n  Format                                   : AC-3\n  Format/Info                              : Audio Coding 3\n  Mode extension                           : CM (complete main)\n  Format settings, Endianness              : Big\n  Codec ID                                 : A_AC3\n  Duration                                 : 52mn 7s\n  Bit rate mode                            : Constant\n  Bit rate                                 : 384 Kbps\n  Channel(s)                               : 6 channels\n  Channel positions                        : Front: L C R, Side: L R, LFE\n  Sampling rate                            : 48.0 KHz\n  Bit depth                                : 16 bits\n  Compression mode                         : Lossy\n  Delay relative to video                  : 28ms\n  Stream size                              : 143 MiB (6%)\n  Title                                    : WEB-DL by BS\n  Language                                 : English\n  Default                                  : No\n  Forced                                   : No\n\n  Text #1\n  ID                                       : 4\n  Format                                   : UTF-8\n  Codec ID                                 : S_TEXT/UTF8\n  Codec ID/Info                            : UTF-8 Plain Text\n  Title                                    : by iTASA\n  Language                                 : Italian\n  Default                                  : No\n  Forced                                   : No\n\n  Text #2\n  ID                                       : 5\n  Format                                   : UTF-8\n  Codec ID                                 : S_TEXT/UTF8\n  Codec ID/Info                            : UTF-8 Plain Text\n  Language                                 : English\n  Default                                  : No\n  Forced                                   : No\n\n\nSMiL3 AND SEED! ","torrent":{"xt":"urn:btih:afef429a5de284bcd29b8e4892e4b284ff8b0fb0","amp;dn":"Masters.Of.Sex.S01E04.1080p.WEB-DL.iTA.ENG.6CH.SUBS.H264-SMiL3","amp;tr":["udp%3A%2F%2Ftracker.openbittorrent.com%3A80","udp%3A%2F%2Fopen.demonii.com%3A1337","udp%3A%2F%2Ftracker.coppersurfer.tk%3A6969","udp%3A%2F%2Fexodus.desync.com%3A6969"],"infoHash":"afef429a5de284bcd29b8e4892e4b284ff8b0fb0","infoHashBuffer":{"type":"Buffer","data":[175,239,66,154,93,226,132,188,210,155,142,72,146,228,178,132,255,139,15,176]},"announce":[],"urlList":[]}}